<svg
  width="12"
  height="12"
  viewBox="0 0 12 12"
  fill="none"
  xmlns="http://www.w3.org/2000/svg"
>
  <path
    d="M10.293 1.08601L4 7.37901L1.707 5.08601C1.5184 4.90385 1.2658 4.80306 1.0036 4.80534C0.741405 4.80761 0.490592 4.91278 0.305184 5.09819C0.119776 5.2836 0.0146072 5.53441 0.0123288 5.79661C0.0100503 6.05881 0.110845 6.31141 0.293003 6.50001L3.293 9.50001C3.48053 9.68748 3.73484 9.7928 4 9.7928C4.26517 9.7928 4.51947 9.68748 4.707 9.50001L11.707 2.50001C11.8892 2.31141 11.99 2.05881 11.9877 1.79661C11.9854 1.53441 11.8802 1.2836 11.6948 1.09819C11.5094 0.912783 11.2586 0.807614 10.9964 0.805336C10.7342 0.803057 10.4816 0.903852 10.293 1.08601Z"
    fill="white"
  />
</svg>